<mxfile host="app.diagrams.net" modified="2020-12-10T07:24:07.880Z" agent="5.0 (Windows NT 10.0; Win64; x64) AppleWebKit/537.36 (KHTML, like Gecko) Chrome/87.0.4280.88 Safari/537.36" etag="Zo0JkBBsO1g9daK8fwXe" version="13.10.4" type="github">
  <diagram id="Yc5Q-N0hE4ZpSh8a9BmZ" name="Page-1">
    <mxGraphModel dx="1185" dy="635" grid="1" gridSize="10" guides="1" tooltips="1" connect="1" arrows="1" fold="1" page="1" pageScale="1" pageWidth="827" pageHeight="1169" math="0" shadow="0">
      <root>
        <mxCell id="0" />
        <mxCell id="1" parent="0" />
        <mxCell id="YQJ_ZjBRYF80ZhMWTBvU-2" value="" style="shape=document;whiteSpace=wrap;html=1;boundedLbl=1;fontSize=27;" vertex="1" parent="1">
          <mxGeometry x="120" y="120" width="180" height="150" as="geometry" />
        </mxCell>
        <mxCell id="YQJ_ZjBRYF80ZhMWTBvU-1" value="Widgets" style="text;html=1;strokeColor=none;fillColor=none;align=center;verticalAlign=middle;whiteSpace=wrap;rounded=0;fontSize=27;" vertex="1" parent="1">
          <mxGeometry x="125" y="110" width="170" height="140" as="geometry" />
        </mxCell>
        <mxCell id="YQJ_ZjBRYF80ZhMWTBvU-3" value="" style="rounded=1;whiteSpace=wrap;html=1;fontSize=27;" vertex="1" parent="1">
          <mxGeometry x="20" y="280" width="730" height="370" as="geometry" />
        </mxCell>
        <mxCell id="YQJ_ZjBRYF80ZhMWTBvU-4" value="Layout 1" style="text;html=1;strokeColor=none;fillColor=none;align=center;verticalAlign=middle;whiteSpace=wrap;rounded=0;fontSize=20;" vertex="1" parent="1">
          <mxGeometry x="40" y="290" width="100" height="20" as="geometry" />
        </mxCell>
        <mxCell id="YQJ_ZjBRYF80ZhMWTBvU-6" value="" style="rounded=1;whiteSpace=wrap;html=1;fontSize=27;" vertex="1" parent="1">
          <mxGeometry x="80" y="320" width="730" height="370" as="geometry" />
        </mxCell>
        <mxCell id="YQJ_ZjBRYF80ZhMWTBvU-7" value="" style="rounded=1;whiteSpace=wrap;html=1;fontSize=27;" vertex="1" parent="1">
          <mxGeometry x="140" y="370" width="730" height="370" as="geometry" />
        </mxCell>
        <mxCell id="YQJ_ZjBRYF80ZhMWTBvU-8" value="Layout 2" style="text;html=1;strokeColor=none;fillColor=none;align=center;verticalAlign=middle;whiteSpace=wrap;rounded=0;fontSize=20;" vertex="1" parent="1">
          <mxGeometry x="100" y="330" width="100" height="20" as="geometry" />
        </mxCell>
        <mxCell id="YQJ_ZjBRYF80ZhMWTBvU-9" value="Layout 3" style="text;html=1;strokeColor=none;fillColor=none;align=center;verticalAlign=middle;whiteSpace=wrap;rounded=0;fontSize=20;" vertex="1" parent="1">
          <mxGeometry x="170" y="380" width="100" height="20" as="geometry" />
        </mxCell>
        <mxCell id="YQJ_ZjBRYF80ZhMWTBvU-13" value="Copyright" style="rounded=0;whiteSpace=wrap;html=1;fontSize=17;" vertex="1" parent="1">
          <mxGeometry x="445" y="570" width="120" height="40" as="geometry" />
        </mxCell>
        <mxCell id="YQJ_ZjBRYF80ZhMWTBvU-14" value="Footer" style="rounded=0;whiteSpace=wrap;html=1;fontSize=17;" vertex="1" parent="1">
          <mxGeometry x="445" y="630" width="120" height="40" as="geometry" />
        </mxCell>
        <mxCell id="YQJ_ZjBRYF80ZhMWTBvU-15" value="Navigation" style="rounded=0;whiteSpace=wrap;html=1;fontSize=17;" vertex="1" parent="1">
          <mxGeometry x="445" y="400" width="120" height="40" as="geometry" />
        </mxCell>
        <mxCell id="YQJ_ZjBRYF80ZhMWTBvU-16" value="Carousel" style="rounded=0;whiteSpace=wrap;html=1;fontSize=17;" vertex="1" parent="1">
          <mxGeometry x="445" y="460" width="120" height="40" as="geometry" />
        </mxCell>
        <mxCell id="YQJ_ZjBRYF80ZhMWTBvU-17" value="Content" style="rounded=0;whiteSpace=wrap;html=1;fontSize=17;" vertex="1" parent="1">
          <mxGeometry x="445" y="520" width="120" height="40" as="geometry" />
        </mxCell>
      </root>
    </mxGraphModel>
  </diagram>
</mxfile>
